<?xml version="1.0" standalone="no"?>
<!DOCTYPE svg PUBLIC "-//W3C//DTD SVG 20010904//EN"
 "http://www.w3.org/TR/2001/REC-SVG-20010904/DTD/svg10.dtd">
<svg version="1.0" xmlns="http://www.w3.org/2000/svg"
 width="184.000000pt" height="68.000000pt" viewBox="0 0 184.000000 68.000000"
 preserveAspectRatio="xMidYMid meet">
<metadata>
Created by potrace 1.11, written by Peter Selinger 2001-2013
</metadata>
<g transform="translate(0.000000,68.000000) scale(0.100000,-0.100000)"
fill="#000000" stroke="none">
<path d="M300 567 c-48 -16 -126 -95 -139 -143 -30 -108 9 -204 107 -261 40
-24 58 -28 121 -28 65 0 75 -3 88 -22 13 -19 25 -23 64 -23 27 0 49 3 49 6 0
3 -14 23 -31 44 l-32 39 28 37 c21 27 25 38 15 47 -9 9 -18 4 -40 -21 l-28
-34 -23 31 c-20 27 -29 31 -71 31 -26 0 -48 -3 -48 -7 1 -5 14 -24 30 -43 17
-19 30 -38 30 -42 0 -16 -92 -8 -130 12 -105 53 -134 199 -58 286 40 46 61 56
128 63 40 4 55 10 55 21 0 19 -66 23 -115 7z"/>
</g>
</svg>
